<?xml version="1.0" encoding="UTF-8" standalone="no"?>
<!-- Created with Inkscape (http://www.inkscape.org/) -->

<svg
   version="1.1"
   id="svg1"
   width="2633.3333"
   height="3038.6667"
   viewBox="0 0 2633.3333 3038.6667"
   sodipodi:docname="1.eps"
   xmlns:inkscape="http://www.inkscape.org/namespaces/inkscape"
   xmlns:sodipodi="http://sodipodi.sourceforge.net/DTD/sodipodi-0.dtd"
   xmlns="http://www.w3.org/2000/svg"
   xmlns:svg="http://www.w3.org/2000/svg">
  <defs
     id="defs1" />
  <sodipodi:namedview
     id="namedview1"
     pagecolor="#ffffff"
     bordercolor="#000000"
     borderopacity="0.25"
     inkscape:showpageshadow="2"
     inkscape:pageopacity="0.0"
     inkscape:pagecheckerboard="0"
     inkscape:deskcolor="#d1d1d1">
    <inkscape:page
       x="0"
       y="0"
       inkscape:label="1"
       id="page1"
       width="2633.3333"
       height="3038.6667"
       margin="0"
       bleed="0" />
  </sodipodi:namedview>
  <g
     id="g1"
     inkscape:groupmode="layer"
     inkscape:label="1">
    <g
       id="group-R5">
      <path
         id="path2"
         d="m 15466.4,15305.4 c 0,3.8 0,7.6 0,11.4 -0.2,10.5 -0.4,20.9 -0.5,31.4 -1.3,100.4 -4.2,200.6 -8.5,300.5 v 0 c -2.5,58.8 -5.5,117.6 -9.1,176.2 v 0 c -25.8,422 -78.1,839.1 -155.2,1250.2 v 0 c -9.4,50.3 -19.3,100.5 -29.5,150.6 v 0 c -96.5,475.2 -226,942.2 -385.7,1399.7 v 0 c -16.6,47.6 -33.5,95.1 -50.7,142.5 v 0 c -65.4,179.3 -135.4,357.1 -209.8,533.3 -52.2,123.6 -106.6,246.4 -163.1,368.3 v 0.1 c -3.2,7 -6.6,13.9 -9.8,20.8 -245.1,526.2 -529.7,1037.1 -849.3,1530.3 -49.9,77.1 -167.1,62.7 -196.1,-24.5 -141.6,-427 -338.3,-835.3 -582.1,-1213.4 -4.7,-7.3 -9.5,-14.5 -14.2,-21.8 -8.9,-13.7 -17.9,-27.3 -26.9,-40.9 -8,-11.9 -15.9,-23.8 -23.9,-35.7 -179.1,-264.9 -381.5,-514.1 -604.5,-743.2 -5.7,-5.9 -11.4,-11.8 -17.1,-17.6 -103.4,-105.2 -211,-206.2 -322.7,-302.5 -93.4,-80.5 -189.6,-158 -288.6,-231.7 -118.4,-88.1 -239,-172.3 -361.4,-253.6 v 0 c -58.7,-39 -117.9,-77.4 -177.4,-115.2 v 0 c -363,-230.7 -738.4,-440.6 -1111.73,-654.6 l 0.01,0.1 c -39.22,-22.5 -78.42,-45 -117.58,-67.6 v -0.1 c -427.54,-246.6 -850.22,-502.1 -1245.99,-804.1 -54.67,-41.7 -109.18,-83.7 -163.52,-125.9 h 0.01 c -51.31,-39.8 -102.49,-79.9 -153.48,-120.2 l -0.01,-0.1 c -398.56,-315.1 -786.1,-644.6 -1154.89,-993.7 v 0.1 c -49.07,-46.5 -97.8,-93.3 -146.18,-140.4 l -0.01,-0.1 c -252.26,-245.9 -495.11,-501.5 -725.38,-769 -7.91,-9.2 -15.75,-18.5 -23.64,-27.7 -9.72,-11.4 -19.44,-22.7 -29.12,-34.2 -10.08,-11.9 -20.12,-23.8 -30.14,-35.8 -8.88,-10.6 -17.73,-21.2 -26.56,-31.9 -9.88,-11.8 -19.77,-23.7 -29.61,-35.7 -15.79,-19.2 -31.49,-38.4 -47.13,-57.7 -9.79,-12.1 -19.51,-24.3 -29.24,-36.4 -8.47,-10.6 -16.93,-21.2 -25.36,-31.8 -9.83,-12.4 -19.63,-24.7 -29.38,-37.1 -8.97,-11.4 -17.88,-22.9 -26.81,-34.4 -15.39,-19.7 -30.7,-39.6 -45.92,-59.4 -8.65,-11.3 -17.29,-22.6 -25.89,-34 -6.53,-8.6 -13,-17.2 -19.51,-25.8 v 0.1 c -2.99,-4 -5.94,-8 -8.92,-12 -8.16,-10.8 -16.27,-21.8 -24.38,-32.6 -9.18,-12.4 -18.39,-24.8 -27.53,-37.2 -14.67,-19.9 -29.25,-40 -43.74,-60 -9,-12.5 -17.91,-24.9 -26.84,-37.4 l -0.72,-1 v -0.1 c -7.74,-10.8 -15.45,-21.6 -23.14,-32.5 -8.93,-12.6 -17.87,-25.2 -26.72,-37.9 -8.73,-12.4 -17.37,-24.9 -26.03,-37.4 -13.58,-19.7 -27.07,-39.3 -40.49,-59 -8.25,-12.2 -16.51,-24.3 -24.71,-36.5 -8.5,-12.7 -16.95,-25.3 -25.38,-38 -7.9,-11.9 -15.76,-23.8 -23.59,-35.7 -8.04,-12.2 -16.1,-24.4 -24.07,-36.7 -13.63,-20.9 -27.17,-41.9 -40.59,-63 -7.82,-12.3 -15.56,-24.6 -23.33,-36.9 -7.77,-12.3 -15.53,-24.6 -23.24,-37 -7.72,-12.4 -15.43,-24.8 -23.08,-37.2 -9.26,-15.1 -18.42,-30.1 -27.58,-45.2 -10.54,-17.4 -21,-34.8 -31.39,-52.2 -8.32,-13.9 -16.61,-27.8 -24.84,-41.8 -7.18,-12.2 -14.32,-24.4 -21.44,-36.7 -7.9,-13.5 -15.73,-27.1 -23.55,-40.8 -6.56,-11.4 -13.15,-22.8 -19.66,-34.3 -12.61,-22.2 -25.1,-44.5 -37.49,-66.9 -6.41,-11.5 -12.75,-23.1 -19.09,-34.7 -7.71,-14.1 -15.38,-28.2 -22.98,-42.3 -6.32,-11.7 -12.63,-23.4 -18.89,-35.1 -10.21,-19.2 -20.31,-38.3 -30.35,-57.5 -6.98,-13.4 -13.89,-26.8 -20.79,-40.2 -8.29,-16.1 -16.54,-32.2 -24.7,-48.4 -5.76,-11.4 -11.49,-22.7 -17.18,-34.2 -8.03,-16 -15.97,-32.2 -23.88,-48.3 -4.82,-9.8 -9.68,-19.6 -14.45,-29.4 -11.54,-23.8 -22.9,-47.6 -34.16,-71.5 -4.96,-10.5 -9.82,-21 -14.72,-31.5 -7.62,-16.4 -15.17,-32.7 -22.67,-49.1 -4.78,-10.5 -9.56,-20.9 -14.28,-31.4 -11.04,-24.5 -21.96,-49 -32.7,-73.5 -3.52,-8 -6.93,-16 -10.4,-24.1 -8.09,-18.7 -16.14,-37.4 -24.07,-56.1 -4.34,-10.3 -8.65,-20.6 -12.95,-30.9 -7.91,-18.9 -15.73,-37.9 -23.46,-56.9 -3.2,-7.8 -6.45,-15.7 -9.61,-23.5 -10.22,-25.4 -20.27,-50.9 -30.19,-76.3 -3.6,-9.3 -7.13,-18.5 -10.68,-27.8 -7.2,-18.7 -14.32,-37.5 -21.35,-56.3 -3.4,-9.1 -6.83,-18.2 -10.2,-27.3 -9.62,-26.1 -19.11,-52.2 -28.39,-78.3 -2.23,-6.3 -4.37,-12.5 -6.57,-18.8 -7.52,-21.4 -14.94,-42.8 -22.24,-64.2 -3.06,-9 -6.1,-18 -9.12,-27 -7.45,-22.2 -14.78,-44.5 -22,-66.7 -1.76,-5.5 -3.56,-10.9 -5.3,-16.3 -8.67,-27 -17.13,-54.1 -25.44,-81.3 -2.42,-7.9 -4.8,-15.8 -7.19,-23.7 -6.41,-21.2 -12.72,-42.5 -18.92,-63.8 -2.21,-7.6 -4.43,-15.2 -6.62,-22.8 -7.92,-27.6 -15.68,-55.2 -23.23,-82.9 -1.28,-4.8 -2.52,-9.5 -3.79,-14.3 -6.4,-23.7 -12.66,-47.5 -18.8,-71.3 -2.01,-7.8 -4,-15.7 -5.99,-23.5 -6.43,-25.5 -12.74,-51 -18.85,-76.5 -0.7,-2.9 -1.44,-5.8 -2.12,-8.7 -6.79,-28.5 -13.34,-57.1 -19.72,-85.7 -1.51,-6.8 -2.98,-13.6 -4.47,-20.4 -5.15,-23.5 -10.17,-47 -15.03,-70.5 -1.29,-6.2 -2.59,-12.4 -3.85,-18.6 -5.9,-29 -11.62,-58 -17.1,-87.1 -0.67,-3.5 -1.28,-7.1 -1.94,-10.6 -4.81,-25.8 -9.43,-51.5 -13.89,-77.4 -1.18,-6.8 -2.35,-13.6 -3.5,-20.3 -4.81,-28.5 -9.47,-56.9 -13.87,-85.4 l -0.3,-1.9 c -4.59,-29.7 -8.89,-59.6 -13.03,-89.4 -0.83,-6 -1.61,-12.1 -2.43,-18.1 -3.41,-25.2 -6.68,-50.5 -9.75,-75.8 -0.62,-5.1 -1.26,-10.1 -1.88,-15.2 -3.57,-30 -6.94,-60.1 -10.05,-90.2 -0.32,-3.1 -0.59,-6.1 -0.89,-9.1 -1.78,-17.5 -3.55,-35 -5.18,-52.5 l 0.1,-1.3 c -55.23,-598.9 -17.41,-1214 132.07,-1837.7 73.76,-291.5 165.16,-576.8 276.27,-856.3 223.86,-563.1 513,-1110.2 890.3,-1586.3 179.47,-226.4 381.14,-438.1 612.52,-612.1 195.48,-147.1 414.2,-226.4 622.44,-336.3 -94.19,-1047.1 -79.93,-2110.1 70.69,-3144.1 23.04,-158.2 51.04,-311.4 91.06,-466.1 54.84,-211.9 402.83,-174.2 389.03,52.6 -38.25,629 -127.4,1253.2 -146.8,1884.5 -16.39,533.4 -5.16,1068.7 31.16,1601.5 980.48,146.7 1927.92,453.5 2797.07,923.1 l 0.6,0.1 c 2.9,1.6 5.9,3.3 8.8,4.9 19.7,10.6 39.2,21.5 58.7,32.4 20,11 40,21.9 59.9,33.1 17.1,9.7 34.1,19.6 51.2,29.4 21.8,12.5 43.7,25 65.5,37.7 16.2,9.5 32.4,19.3 48.6,29 22.1,13.1 44.3,26.2 66.3,39.7 17.2,10.4 34.3,21.2 51.5,31.8 20.7,12.8 41.5,25.5 62.1,38.6 20.4,12.9 40.6,26 60.9,39.1 17.2,11.1 34.4,22 51.5,33.2 26.6,17.4 52.9,35.1 79.3,52.8 10.7,7.3 21.5,14.3 32.2,21.6 74.6,50.7 148.5,102.7 221.6,156.1 419,306.2 884.8,626.9 1326.2,977 217.4,172.5 428.9,352.1 625.9,540.7 2.6,2.5 5.3,5 7.9,7.5 6.8,6.5 13.3,13 20,19.5 263.9,255.6 501,527.6 689.8,820.6 88.5,137.2 173.9,276.4 256.2,417.4 l 0.1,0.1 c 48.1,82.4 95.1,165.4 141.1,249 l -0.1,-0.1 c 185.7,337.6 354,684.7 504.3,1039.5 v 0 c 34.6,81.5 68.1,163.4 100.8,245.8 l -0.1,-0.1 c 225.6,569.2 405.6,1156.5 537.5,1754.4 h 0.1 c 12.7,57.8 25,115.6 36.9,173.6 l -0.1,-0.1 c 98,478.9 165.3,964 200.7,1451.4 v 0.1 c 4.4,59.3 8.2,118.7 11.5,178.1 v 0 c 13.8,242.2 19.6,484.8 17.5,727.4"
         style="fill:#38a75b;fill-opacity:1;fill-rule:nonzero;stroke:none"
         transform="matrix(0.13333333,0,0,-0.13333333,0,3038.6667)" />
      <path
         id="path3"
         d="m 7243.27,3599.5 c -16.39,533.4 -5.17,1068.7 31.16,1601.5 6.25,91.8 13.17,183.5 20.91,275 30.56,361.6 74.5,722.2 131.11,1080.9 638.5,148.1 1268.53,333.8 1886.97,552.3 516.28,182.5 1024.48,387.8 1522.68,613.3 1079.7,488.6 2111.9,1080.6 3080.1,1763.8 l 0.1,0.1 c 48.1,82.4 95.1,165.4 141.1,249 l -0.1,-0.1 c -449.6,-323.6 -913.6,-627.3 -1390,-910.1 -797,-473.2 -1628.2,-889.1 -2485.2,-1242.2 -317.73,-130.9 -638.86,-253.4 -963.27,-366.5 -581.22,-202.8 -1172.59,-375.4 -1770.16,-522.9 57.18,342.2 125.93,682.6 205.83,1020.3 578.73,90.3 1151.99,221 1715.47,386 454.03,133 901.73,288.2 1340.73,462.4 50.2,19.9 100.3,40 150.2,60.4 119.6,48.8 238.6,99 356.9,150.6 1186.3,517.2 2304.9,1188.2 3323.8,1985.7 6.7,5.2 13.3,10.5 20,15.7 v 0.1 c 34.6,81.5 68.1,163.4 100.8,245.8 -0.1,-0.1 -0.1,-0.1 -0.1,-0.1 -2.2,-1.8 -4.4,-3.6 -6.6,-5.4 -503.9,-404.4 -1030.9,-778.8 -1581.2,-1117.7 -596.4,-367.4 -1218,-694.4 -1858.8,-978 -532.2,-235.5 -1077.7,-441.1 -1633.2,-614.6 -622.16,-194.3 -1256.39,-344 -1897.01,-462.3 107.08,436.2 232.61,867.9 375.81,1293 20,59.4 40.43,118.7 61.1,177.9 1274.52,241 2515.7,667.2 3682.7,1230.8 146.6,70.8 292.1,144.1 436.4,219.5 1059.3,553.4 2054.3,1229.4 2958.3,2011.2 0.1,0 0.1,0 0.1,0 12.7,57.8 25,115.6 36.9,173.6 0,0 0,-0.1 -0.1,-0.1 -475.4,-417.9 -975.5,-807.5 -1498.9,-1164.2 -807.2,-550.1 -1666.4,-1023.9 -2562.8,-1412.2 -352.4,-152.7 -710.6,-292.1 -1073.6,-417.8 -634.47,-219.5 -1283.57,-394.8 -1940.6,-532.1 145.55,407.9 307.17,810.8 485.4,1206.3 1012.25,175.6 1998.8,488 2930.6,920.1 55.6,25.8 111.1,52 166.4,78.6 42.6,20.6 85.1,41.6 127.5,62.6 113.8,56.6 226.7,114.9 338.6,175.1 834.2,448.5 1615.2,996 2320.7,1628 318.2,285.1 623.1,587.2 907.4,907 v 0 c 4.4,59.4 8.2,118.8 11.5,178.2 v 0 c -637,-718.2 -1347.5,-1363.6 -2139.2,-1912.3 -429.6,-297.7 -878.7,-567.3 -1343.4,-806.4 -524.4,-269.7 -1068.7,-500.5 -1627.5,-688.7 -534.76,-180.1 -1082.32,-321.1 -1637.55,-421.4 241.91,524.7 513.42,1035.7 815.75,1526.9 836.8,172.1 1657.3,466.6 2430.3,836.3 131.4,62.8 261.4,127.7 389.8,194.7 917.2,477.9 1775,1074.1 2537.9,1772.7 199.4,182.7 395.2,371.8 582.4,568.9 v 0 c -2.5,58.8 -5.5,117.6 -9.1,176.2 v 0 c -170.9,-182 -345.7,-360.4 -528.1,-531.8 -372.5,-349.8 -767.2,-676.7 -1181,-976.6 -331.3,-240.1 -675.2,-463.1 -1029.4,-668.6 -532.4,-308.7 -1088.3,-577.3 -1661.3,-800.7 -478.9,-186.7 -969.7,-335.7 -1466.22,-466.1 30.02,47.8 60.22,95.5 90.83,142.9 202.19,313 418.39,613.9 644.89,907.3 -18.8,-31 5.3,-81.9 50.2,-69.3 603.4,169.7 1185.3,411.3 1734.6,712.6 226.4,124.1 447.3,258.4 661.8,402 734.2,491.5 1395.9,1099.9 1950.2,1787.6 206.4,256.1 404.1,527.4 578.3,810.9 v 0 c -9.4,50.3 -19.3,100.5 -29.5,150.6 v 0 c -166.1,-261.2 -339.2,-516.3 -530.4,-762.6 -267.7,-344.9 -562.1,-669.2 -878.5,-970 -436.2,-414.7 -917,-784.4 -1429.6,-1101.6 -229.3,-142 -464.9,-273.5 -705.9,-393.7 -441.7,-220.5 -903.3,-403.1 -1375.5,-547 -8.5,-2.6 -14.9,-6.9 -19.9,-12 168.4,218 342.6,431.9 520.9,643.7 137.2,162.9 275.6,325 413.2,487.8 7.1,0.1 14.5,1.8 22.1,6.2 402.1,230.1 781.5,503.8 1136.7,805.3 236.6,200.8 462.5,413.8 676.9,635 538.9,555.9 1009.3,1179.2 1395,1850.7 109.6,190.8 212,385.5 306.8,584 27.5,57.6 55.2,115.6 82.5,173.9 v 0 c -16.6,47.6 -33.5,95.1 -50.7,142.5 v 0 c -30.1,-69.4 -60.7,-138.5 -93.3,-206.7 -82.5,-172.9 -170.5,-343.1 -263.3,-510.7 -114,-205.9 -236,-407.4 -365.5,-604 -79.3,-120.5 -161.4,-239.1 -246.3,-355.7 -232.4,-319.5 -485.7,-623.7 -757.3,-910.8 -142.7,-150.8 -290.4,-296.8 -442.9,-437.7 -119.5,-110.4 -241.7,-217.9 -366.8,-321.9 -270.9,-225 -555.3,-431.2 -846.9,-627.6 242.3,290.3 479.5,584.7 701,891.3 190.6,264 363.8,536.8 518.7,819.4 33.6,30.5 66.8,61.4 99.7,92.3 118.3,110.9 232,226.6 338.9,348.6 207.5,236.7 396.1,490.2 563.2,757 15.9,25.5 31.5,51.2 47.1,77 313.8,518.9 549.2,1093.1 693.1,1681.1 17,69.6 32.9,139.7 47.7,210.1 -19.5,42.1 -39.4,84.1 -59.4,126 -12.8,-70.7 -26.9,-141.2 -42.8,-211.4 -68.7,-302.6 -162.1,-599.4 -278,-887.2 -115.2,-285.6 -256.6,-562.9 -419.3,-827.2 -166.6,-270.7 -355.4,-527.9 -561.4,-766.4 -87.2,-100.9 -177.6,-199.4 -270.8,-294.9 103.3,211.2 196.7,427.8 279.4,650.3 2.2,6 4.3,12 6.5,18 233.1,631.6 384.8,1290 499.1,1952.6 27.7,160.5 35.3,324.9 48.2,487.2 7.9,99.8 -154,121.6 -175.1,23.7 -142.8,-662.6 -253.5,-1330.4 -448.3,-1981 -41.6,-139 -87,-276.6 -135.7,-412.8 -111.7,-311.6 -242.6,-615.2 -395.6,-908.2 31.7,101.7 60.1,204.4 87,307 72.4,275.7 126.8,554.9 165.4,837.3 2.8,20.7 5.4,41.4 8.1,62.1 71.1,547.8 91.3,1102 79.9,1654.1 -3.3,164.3 -9.6,328.4 -19.1,492.3 -24.3,-37.9 -49.1,-75.3 -74.4,-112.6 14.5,-368.5 18.9,-737.4 0.5,-1105.9 -11.1,-221.8 -29.4,-443.3 -55.3,-663.9 -40.7,-345.9 -100.5,-689.5 -182.3,-1028.4 -72.8,-301.9 -175.3,-593.6 -266.5,-889.9 -17.1,-27.3 -34.3,-54.6 -51.9,-81.7 -299.4,-461.5 -642.1,-891.8 -994.4,-1313.7 63,278.4 122.9,557 194.7,833.6 84.2,324.6 178.9,646.4 272.7,968.3 25.1,86.1 50.1,172.3 74.8,258.6 155.9,543.4 300.8,1091.4 375.9,1652.3 28.9,216 48,434.5 50.5,653 -36.4,-37.8 -73.3,-75.2 -110.8,-111.9 -30.6,-466.3 -109.2,-926.2 -222.9,-1383.7 -159.5,-641.9 -369.1,-1269.9 -541.7,-1908.2 -5.6,-20.6 -11.2,-41.1 -16.7,-61.8 -89.1,-332.4 -172,-672.3 -203.4,-1015 -1,-11.2 1.9,-20.5 7.2,-28 -52.3,-62.1 -104.8,-124.1 -157.3,-186.1 -227.8,-268.9 -454.1,-539.2 -674.3,-814.2 -58.1,623.3 -61.3,1250.6 15.5,1872.8 40.2,325.9 101.7,649.4 182.4,968.2 88.8,350.7 200.9,695.6 334.8,1031.2 110.6,277.5 240.3,546.8 378.2,811.7 0,0 0,0 0,0 -58.7,-39 -117.9,-77.4 -177.4,-115.2 v 0 c -261,-479.9 -459.6,-998.7 -605,-1521.1 -187.9,-675.1 -287.6,-1376 -293.8,-2076.8 0,-2.5 0,-4.9 0,-7.4 -2.8,-359.4 21.9,-718.5 77.8,-1073.4 -162.83,-206 -322,-414.7 -475.52,-627.9 -109.83,-152.5 -216.93,-306.9 -321.33,-463.1 -86.29,688.4 -114.67,1383.2 -79.92,2074.6 35.91,714.4 139.04,1425.1 315.6,2121.3 78.52,309.6 167.73,616.7 270.44,919.2 v 0.1 c -39.21,-22.5 -78.41,-45 -117.56,-67.6 l -0.02,-0.1 c -464.85,-1286.9 -673.52,-2664.7 -614.26,-4032.1 2.44,-56.4 5.46,-112.8 8.91,-169 20.52,-335.5 59.05,-668.9 115.23,-1000.4 -293.71,-450.8 -564.5,-916.3 -809.65,-1395 -107.2,382.5 -200.5,767.4 -273.99,1156 -79.59,420.7 -135.96,845.6 -161,1276.3 -50.9,875.4 8.87,1757.7 182.56,2617.3 41.83,207 89.66,412.6 142.7,616.9 0.01,0 0.01,0 0.02,0 -51.32,-39.8 -102.49,-79.9 -153.48,-120.2 -0.01,0 -0.02,0 -0.02,0 -139.49,-533.1 -230.96,-1078.8 -279.63,-1628.1 -78.08,-881.4 -40.21,-1771.9 109.64,-2643.8 13.31,-77.5 27.58,-154.8 42.69,-231.9 78.33,-399.9 181.99,-794.8 322.34,-1177.5 -189.39,-379.1 -362.82,-766.3 -518.86,-1160.6 -2.24,-5.7 -4.41,-11.3 -6.63,-17 -134.39,326.1 -265.25,653.2 -377.15,988 -129.45,387.3 -235.19,781.8 -320.47,1181.1 -7.37,34.5 -14.33,69.1 -21.35,103.7 -156.59,771.1 -227.09,1559.2 -209.58,2345.9 9.33,419 53.43,831.7 104.11,1246.4 0,0 0,0 0,0.1 -49.07,-46.5 -97.8,-93.3 -146.17,-140.4 -0.01,-0.1 -0.01,-0.1 -0.02,-0.1 -44.77,-310.7 -67.79,-626.4 -82.18,-938.1 -19.2,-415.7 -13.78,-832.5 15.86,-1247.6 48.1,-673.2 159.01,-1341.3 332.99,-1993.1 40.3,-151 83.98,-301.1 131.06,-450.2 136.62,-432.8 298.15,-862.3 507.02,-1265.8 -171.17,-449.9 -320.54,-907.1 -448.34,-1370.1 -80.11,131.7 -165.69,260.7 -242.51,393.9 -113.98,197.6 -221.6,399.2 -322.82,603.6 -201.69,407.4 -374.45,828.7 -517.81,1260 -37.43,112.6 -72.75,225.9 -106.16,339.8 -222.13,757 -355.08,1539.9 -392.83,2328.2 -17.45,364.4 -4.93,726 12.03,1088.5 0,0 0,0 0,0.1 -2.99,-4 -5.93,-8 -8.92,-12 -8.15,-10.8 -16.27,-21.7 -24.37,-32.6 -9.2,-12.4 -18.41,-24.8 -27.54,-37.2 -14.67,-19.9 -29.25,-40 -43.75,-60 -8.99,-12.5 -17.9,-24.9 -26.82,-37.4 -0.24,-0.4 -0.48,-0.7 -0.73,-1 -13.01,-246 -12.27,-493.1 -6.1,-737.4 11.65,-461.9 56.31,-922.8 131.52,-1378.7 88.38,-535.6 220.75,-1063.6 394.19,-1577.7 121.47,-360.1 262.92,-713.5 424.24,-1057.8 109.81,-234.3 228.87,-463.9 358.45,-687.9 109.45,-189.2 220.3,-386.8 354.79,-561.5 -90.75,-343.7 -169.73,-690.5 -237,-1039.8 -525.77,600.3 -970.74,1270.5 -1317.56,1989.2 -148.55,307.9 -279.84,623.6 -393.11,945.6 -163.47,464.6 -289.07,942.2 -372,1428.7 -73.97,433.9 -113.29,874.7 -127.31,1314.7 -10.54,-23.4 -21,-46.8 -31.28,-70.3 -3.5,-8 -6.91,-16 -10.39,-24.1 -8.1,-18.7 -16.13,-37.4 -24.07,-56.1 -4.34,-10.3 -8.65,-20.6 -12.95,-30.9 -1.29,-3.1 -2.55,-6.2 -3.84,-9.3 5.35,-438.4 50.25,-876.5 128.08,-1308.7 55.36,-307.3 127.3,-611.6 213.57,-910.8 236.64,-820.7 591.63,-1605.2 1054.34,-2323.3 256,-397.3 544.51,-771.6 863.8,-1120 -44.81,-247.6 -83.88,-496.3 -117.05,-746 -28.58,-215.2 -52.62,-431.4 -72.13,-648.3 -94.19,-1047.1 -79.94,-2110.1 70.68,-3144.1 23.05,-158.2 51.04,-311.4 91.06,-466.1 54.84,-211.9 402.83,-174.2 389.04,52.6 -38.25,629 -127.41,1253.2 -146.81,1884.5"
         style="fill:#22431f;fill-opacity:1;fill-rule:nonzero;stroke:none"
         transform="matrix(0.13333333,0,0,-0.13333333,0,3038.6667)" />
      <path
         id="path4"
         d="m 7153.6,11135.2 c -173.98,651.8 -284.89,1319.9 -332.99,1993.1 -29.64,415.1 -35.06,831.9 -15.86,1247.6 14.39,311.7 37.41,627.4 82.18,938.1 -252.26,-245.9 -495.1,-501.5 -725.38,-769 -7.91,-9.2 -15.75,-18.5 -23.63,-27.7 -9.73,-11.4 -19.45,-22.7 -29.12,-34.2 -10.09,-11.9 -20.13,-23.8 -30.15,-35.8 -8.88,-10.6 -17.72,-21.2 -26.56,-31.9 -9.88,-11.8 -19.77,-23.7 -29.59,-35.7 -15.8,-19.2 -31.52,-38.4 -47.14,-57.7 -9.8,-12.1 -19.52,-24.3 -29.25,-36.4 -8.47,-10.6 -16.93,-21.2 -25.36,-31.8 -9.82,-12.4 -19.63,-24.7 -29.38,-37.1 -8.97,-11.4 -17.88,-22.9 -26.8,-34.4 -15.4,-19.7 -30.71,-39.6 -45.93,-59.4 -8.65,-11.3 -17.3,-22.6 -25.88,-34 -6.54,-8.6 -13.02,-17.2 -19.52,-25.8 -16.96,-362.5 -29.48,-724.1 -12.03,-1088.5 37.75,-788.3 170.7,-1571.2 392.83,-2328.2 42.95,-105.4 88.44,-211.7 136.42,-321.8 44.94,-103.1 96.74,-210.9 191.34,-271.7 121.51,-78 299.65,-49.8 391.02,62 68.89,84.4 81.42,207.7 40.1,307.5 34.85,-53.7 69.7,-107.2 104.55,-160.8 102.94,12.1 180.18,107.5 204.81,208.2 24.62,100.6 7.65,206.2 -9.3,308.4 -19.79,119 -39.58,238 -59.38,357"
         style="fill:#5cc35a;fill-opacity:1;fill-rule:nonzero;stroke:none"
         transform="matrix(0.13333333,0,0,-0.13333333,0,3038.6667)" />
      <path
         id="path5"
         d="m 9313.42,7109.2 c -238.07,-151.1 -378.58,-298.4 -266.01,-401.5 224.85,40.9 449.56,81.8 674.4,122.5 -131.59,-55.4 -263.05,-111 -394.65,-166.5 -93.25,-39.3 -192.55,-83.7 -245.44,-170.1 -100.51,-164.3 34.85,-390.9 216.37,-455.6 181.39,-64.9 381.61,-17.4 567.97,31.3 68.43,17.9 136.94,36 205.44,54.8 0.2,0 0.4,0.1 0.6,0.1 2.9,1.6 5.9,3.3 8.8,4.9 19.7,10.6 39.2,21.5 58.7,32.4 20,11 40,21.9 59.9,33.2 17.2,9.6 34.1,19.5 51.2,29.3 21.8,12.5 43.7,25 65.5,37.7 16.2,9.5 32.4,19.3 48.6,29 22.1,13.1 44.3,26.2 66.3,39.6 17.2,10.5 34.3,21.3 51.5,31.9 20.7,12.8 41.5,25.5 62.1,38.6 20.4,12.9 40.6,26 60.9,39.1 17.2,11.1 34.4,22 51.5,33.2 26.5,17.4 52.9,35.1 79.3,52.9 10.7,7.2 21.5,14.2 32.2,21.5 74.6,50.7 148.5,102.7 221.6,156.1 419,306.2 884.8,626.9 1326.2,977 217.4,172.5 428.9,352.1 625.9,540.7 2.6,2.5 5.3,5 7.9,7.5 6.8,6.5 13.3,13 20,19.5 263.9,255.6 501,527.6 689.8,820.6 88.5,137.2 173.9,276.4 256.2,417.4 C 12948,8803.1 11915.8,8211.1 10836.1,7722.5 10337.9,7496.9 9829.7,7291.7 9313.42,7109.2"
         style="fill:#5cc35a;fill-opacity:1;fill-rule:nonzero;stroke:none"
         transform="matrix(0.13333333,0,0,-0.13333333,0,3038.6667)" />
      <path
         id="path6"
         d="m 12764.6,14476.6 c -214.5,-143.6 -435.4,-277.9 -661.8,-402 -14.1,-21.7 -29.6,-42.2 -49.4,-59.1 -59,-50.5 -75.2,-167.7 -1,-190.4 -137.3,-123 -307,-209.5 -487.1,-248.2 -25.2,-109.2 63.7,-208.3 145.1,-285.1 23.7,-22.3 50.8,-46.1 83.3,-46 18.9,0 36.5,8.2 53.6,16.2 276.2,130 591,259.4 867.2,389.3 -1.6,-1.2 -3.1,-2.3 -4.7,-3.4 354.2,205.5 698.1,428.5 1029.4,668.6 413.8,299.9 808.5,626.8 1181,976.6 182.4,171.4 357.2,349.8 528.1,531.8 -25.8,422 -78.1,839.1 -155.2,1250.2 -174.2,-283.5 -371.9,-554.8 -578.3,-810.9 -554.3,-687.7 -1216,-1296.1 -1950.2,-1787.6"
         style="fill:#5cc35a;fill-opacity:1;fill-rule:nonzero;stroke:none"
         transform="matrix(0.13333333,0,0,-0.13333333,0,3038.6667)" />
      <path
         id="path7"
         d="m 14530,13492.8 c -705.5,-632 -1486.5,-1179.5 -2320.7,-1628 13,1.5 25.9,3.2 38.7,5.3 -125.8,-60.1 -251.5,-120.2 -377.3,-180.4 -42.4,-21 -84.9,-42 -127.5,-62.6 -55.3,-26.6 -110.8,-52.8 -166.4,-78.6 -228.8,-112.8 -453.7,-241.4 -605.8,-443.6 -12.2,-16.3 -24.4,-34.3 -25.8,-54.8 -5,-73.6 107.1,-79.8 177.2,-56.5 267.5,88.9 535,177.8 802.5,266.7 -216.7,-78.6 -433.5,-157.2 -650.3,-235.8 -165.8,-60 -332.3,-120.4 -485.9,-207 -22.1,-12.4 -44.9,-26.7 -55.3,-49.7 -12.5,-27.7 -3.2,-59.7 6.1,-88.7 36,-111.1 72,-222.2 108,-333.3 111.8,-2.5 220.8,7 327.5,26.2 896.4,388.3 1755.6,862.1 2562.8,1412.2 523.4,356.7 1023.5,746.3 1498.9,1164.2 98,478.9 165.3,964 200.7,1451.4 -284.3,-319.8 -589.2,-621.9 -907.4,-907"
         style="fill:#5cc35a;fill-opacity:1;fill-rule:nonzero;stroke:none"
         transform="matrix(0.13333333,0,0,-0.13333333,0,3038.6667)" />
      <path
         id="path8"
         d="m 10519.3,9751.4 c 9.2,-92.1 104.4,-156.3 196.9,-162.9 92.3,-6.5 181.6,29.7 267.1,65.3 218.6,91.1 437.3,182.2 655.8,273.3 -385.3,-279.3 -814.3,-498.4 -1266.6,-647.1 5.7,-136.8 36.9,-272.6 91.8,-398.1 13.9,-31.5 30.9,-64.4 61.2,-80.2 33.1,-17.5 73.4,-10.5 110,-2.9 198.8,41.8 390.8,77.2 580.2,120.6 640.8,283.6 1262.4,610.6 1858.8,978 550.3,338.9 1077.3,713.3 1581.2,1117.7 2.2,1.8 4.4,3.6 6.6,5.4 225.6,569.2 405.6,1156.5 537.5,1754.4 -904,-781.8 -1899,-1457.8 -2958.3,-2011.2 -481.9,-459.7 -1110,-741.5 -1722.2,-1012.3"
         style="fill:#5cc35a;fill-opacity:1;fill-rule:nonzero;stroke:none"
         transform="matrix(0.13333333,0,0,-0.13333333,0,3038.6667)" />
      <path
         id="path9"
         d="m 15466.4,15305.4 c 0,3.8 0,7.6 0,11.4 -0.2,10.5 -0.4,20.9 -0.5,31.4 -1.3,100.4 -4.2,200.6 -8.5,300.5 -187.2,-197.1 -383,-386.2 -582.4,-568.9 -762.9,-698.6 -1620.7,-1294.8 -2537.9,-1772.7 -128.4,-67 -258.4,-131.9 -389.8,-194.7 -70.6,-49.6 -141.3,-99.2 -212,-148.9 73,-9.9 147.5,-7.2 219.6,7.4 -146.8,-61.9 -278.1,-141 -408.6,-248.8 -40.3,-33.1 -82,-68.5 -101.3,-116.8 -19.4,-48.4 -7.3,-113.7 39.5,-136.4 33.7,-16.3 73.5,-6.7 109.4,3.4 190.7,53.6 378.5,117.7 562.3,191.7 -250.4,-111.1 -517.7,-367.2 -768.2,-478.4 -8.4,-132.5 9.9,-304.7 138.2,-339 39.7,-10.5 81.7,-3.9 122.3,2.8 100.3,16.6 209.3,12.6 317.8,9.9 464.7,239.1 913.8,508.7 1343.4,806.4 791.7,548.7 1502.2,1194.1 2139.2,1912.3 13.8,242.2 19.7,484.8 17.5,727.4"
         style="fill:#5cc35a;fill-opacity:1;fill-rule:nonzero;stroke:none"
         transform="matrix(0.13333333,0,0,-0.13333333,0,3038.6667)" />
      <path
         id="path10"
         d="m 7908.38,14820.1 c 48.67,549.3 140.14,1095 279.63,1628 -398.56,-315.1 -786.1,-644.6 -1154.89,-993.7 -50.68,-414.7 -94.78,-827.4 -104.11,-1246.4 -17.51,-786.7 52.98,-1574.8 209.58,-2345.9 22.58,-54.1 44.25,-108.2 63.63,-162.2 48.84,-136.5 155.54,-303.6 292.93,-257.4 114.91,38.5 129.98,192.5 122.32,313.4 -58.13,927.7 -211.8,1866.7 -36.07,2779.5 18.57,-774.3 100.79,-1493.6 217.45,-2259.5 23.42,-153 60.83,-324.8 193.1,-405.4 28.75,18.3 52.24,44.1 68.76,73.9 -15.11,77.1 -29.38,154.4 -42.69,231.9 -149.85,871.9 -187.72,1762.4 -109.64,2643.8"
         style="fill:#5cc35a;fill-opacity:1;fill-rule:nonzero;stroke:none"
         transform="matrix(0.13333333,0,0,-0.13333333,0,3038.6667)" />
      <path
         id="path11"
         d="m 12116.2,18507.8 c -75.1,-560.9 -220,-1108.9 -375.9,-1652.3 -13.7,-110.3 -27.5,-220.5 -41.3,-330.8 -12,-95.5 -15.5,-211.4 63.5,-266.5 79.1,-55.1 189.1,-10.5 264.8,48.9 207.3,162.6 316.9,418.3 398.2,668.8 143.7,443.5 224.4,907.3 239,1373.3 0.2,-82.4 11.8,-161.8 28.7,-240.5 25.9,220.6 44.2,442.1 55.3,663.9 18.4,368.5 14,737.4 -0.5,1105.9 1.4,2 2.6,4 4,5.9 -179.1,-264.9 -381.5,-514.1 -604.5,-743.2 6.4,6.5 12.8,13 19.2,19.6 -2.5,-218.5 -21.6,-437 -50.5,-653"
         style="fill:#5cc35a;fill-opacity:1;fill-rule:nonzero;stroke:none"
         transform="matrix(0.13333333,0,0,-0.13333333,0,3038.6667)" />
      <path
         id="path12"
         d="m 13713.5,17778.4 c -49.6,-120.7 -99.1,-241.9 -148.3,-364.6 -29.5,-73.5 -59.5,-151.3 -48.3,-229.7 11,-78.3 79.8,-154.6 158.2,-143.9 51.4,7 91.1,47.1 126.6,85.1 89.5,95.9 179,191.7 268.6,287.5 11.1,11.9 22.8,22.9 34.8,33.7 129.5,196.6 251.5,398.1 365.5,604 92.8,167.6 180.8,337.8 263.3,510.7 32.6,68.2 63.2,137.3 93.3,206.7 -65.4,179.3 -135.4,357.1 -209.8,533.3 -52.2,123.6 -106.6,246.3 -163.1,368.3 -14.8,-70.4 -30.7,-140.4 -47.7,-210 -143.9,-588 -379.3,-1162.2 -693.1,-1681.1"
         style="fill:#5cc35a;fill-opacity:1;fill-rule:nonzero;stroke:none"
         transform="matrix(0.13333333,0,0,-0.13333333,0,3038.6667)" />
      <path
         id="path13"
         d="m 14394.9,19795.6 v -0.1 c 0.9,-1.9 1.8,-3.7 2.7,-5.6 -0.9,1.9 -1.8,3.8 -2.7,5.7"
         style="fill:#5cc35a;fill-opacity:1;fill-rule:nonzero;stroke:none"
         transform="matrix(0.13333333,0,0,-0.13333333,0,3038.6667)" />
      <path
         id="path14"
         d="m 14397.6,19789.9 c 15.8,-33.1 31.4,-66.3 46.9,-99.5 -15.5,33.3 -31.1,66.4 -46.9,99.5"
         style="fill:#5cc35a;fill-opacity:1;fill-rule:nonzero;stroke:none"
         transform="matrix(0.13333333,0,0,-0.13333333,0,3038.6667)" />
      <path
         id="path15"
         d="m 12841.5,19498.8 c 11.4,-552.1 -8.8,-1106.3 -79.9,-1654.1 5.9,-21.8 11.7,-43.7 17.4,-65.8 21,-82.6 49.2,-167.7 111,-226.6 2.1,-2 4.5,-3.8 6.7,-5.8 48.7,136.2 94.1,273.8 135.7,412.8 194.8,650.6 305.5,1318.4 448.3,1981 21.1,97.9 183,76.1 175.1,-23.7 -12.9,-162.3 -20.5,-326.7 -48.2,-487.2 -114.3,-662.6 -266,-1321 -499.1,-1952.6 42.7,1.2 85.5,9.4 125.1,24 114.5,42.3 207.5,127.7 290.8,216.9 45.6,48.9 88.9,99.8 130.4,152.1 162.7,264.3 304.1,541.6 419.3,827.2 115.9,287.8 209.3,584.6 278,887.2 15.9,70.2 30,140.7 42.8,211.3 -233.6,489.1 -501.4,964.9 -799.7,1425.2 -49.9,77.1 -167.1,62.7 -196.1,-24.5 -141.6,-427 -338.3,-835.3 -582.1,-1213.4 1.8,2.7 3.6,5.5 5.4,8.3 9.5,-163.9 15.8,-328 19.1,-492.3"
         style="fill:#5cc35a;fill-opacity:1;fill-rule:nonzero;stroke:none"
         transform="matrix(0.13333333,0,0,-0.13333333,0,3038.6667)" />
      <path
         id="path16"
         d="m 14454.3,19669.6 c -3.2,7 -6.6,13.9 -9.8,20.8 3.2,-7 6.6,-13.9 9.8,-20.9 0,0 0,0.1 0,0.1"
         style="fill:#5cc35a;fill-opacity:1;fill-rule:nonzero;stroke:none"
         transform="matrix(0.13333333,0,0,-0.13333333,0,3038.6667)" />
      <path
         id="path17"
         d="m 10444.7,16492.9 c -23.1,-187.5 -46.1,-375 -69.2,-562.5 -42,-342.3 -83.8,-692 -14.7,-1030 106.2,682.2 214.5,1372.2 480.5,2009.3 -98.9,-520.2 -155,-1048.5 -167.8,-1577.8 -2,-82.5 -1.6,-170.1 41.4,-240.6 43,-70.4 144.9,-111.3 210.9,-61.9 39.5,29.6 54.8,80.9 66.1,128.8 30,127.8 47.5,258.7 52.1,389.9 2.3,-39.3 4.4,-78.6 6.6,-117.7 43.4,-32.9 98.7,22 123.6,70.5 33.8,65.3 67.4,129.9 100.4,194.3 5.5,20.7 11.1,41.2 16.7,61.8 172.6,638.3 382.2,1266.3 541.7,1908.2 113.7,457.5 192.3,917.4 222.9,1383.7 25.2,24.6 49.9,49.6 74.5,74.7 -103.4,-105.2 -211,-206.2 -322.7,-302.5 -93.4,-80.5 -189.6,-158 -288.6,-231.7 -118.3,-88.1 -239,-172.3 -361.4,-253.6 -137.9,-264.9 -267.6,-534.2 -378.2,-811.7 -133.9,-335.6 -246,-680.5 -334.8,-1031.2"
         style="fill:#5cc35a;fill-opacity:1;fill-rule:nonzero;stroke:none"
         transform="matrix(0.13333333,0,0,-0.13333333,0,3038.6667)" />
      <path
         id="path18"
         d="m 12658.6,15742.3 c 152.5,140.9 300.2,286.9 442.9,437.7 -154.6,-140.2 -307.9,-281.4 -442.9,-437.7"
         style="fill:#5cc35a;fill-opacity:1;fill-rule:nonzero;stroke:none"
         transform="matrix(0.13333333,0,0,-0.13333333,0,3038.6667)" />
      <path
         id="path19"
         d="m 9012.82,13215 c 55.07,-6 106.55,33.1 132.82,82.3 -3.45,56.2 -6.47,112.6 -8.91,169 -59.26,1367.4 149.41,2745.2 614.26,4032.1 -427.53,-246.6 -850.22,-502.1 -1245.98,-804.1 -54.67,-41.7 -109.18,-83.7 -163.52,-125.9 -53.04,-204.3 -100.87,-409.9 -142.7,-616.9 -173.69,-859.6 -233.46,-1741.9 -182.56,-2617.3 25.04,-430.7 81.41,-855.6 161,-1276.3 29.27,25.2 55.99,59.4 70.23,83.9 29.34,50.7 29.07,112.6 27.99,171.1 -10.5,543.5 -20.85,1086.9 -31.21,1630.3 46.28,-385.9 104.95,-770.3 175.86,-1152.6 23.55,-127.1 76.3,-281.7 204.66,-297.6 77.37,-9.6 150.58,40.2 200.5,100 147.47,176.4 148.81,423.8 126.88,657.4 14.94,-18.8 36.75,-32.8 60.68,-35.4"
         style="fill:#5cc35a;fill-opacity:1;fill-rule:nonzero;stroke:none"
         transform="matrix(0.13333333,0,0,-0.13333333,0,3038.6667)" />
      <path
         id="path20"
         d="m 11217.8,8773.3 c -118.3,-51.6 -237.3,-101.8 -356.9,-150.6 -49.8,-21.2 -99.8,-41.4 -150.2,-60.4 -439,-174.2 -886.7,-329.4 -1340.73,-462.4 -37.91,-29.8 -74.53,-61.2 -109.29,-94.7 203.99,-6.2 408.52,10.1 609.02,48.6 -205.87,-78.3 -406.5,-170.6 -599.99,-275.7 31.74,-81.7 63.64,-163.2 95.53,-244.8 9.55,-24.7 20.18,-50.6 41.04,-66.7 27.98,-21.7 66.87,-20.3 101.99,-17.4 228.81,19.7 452.72,70.4 673.83,133.8 857,353.1 1688.2,769 2485.2,1242.2 476.4,282.8 940.4,586.5 1390,910.1 185.7,337.6 354,684.7 504.3,1039.4 -6.7,-5.2 -13.3,-10.5 -20,-15.7 -1018.9,-797.5 -2137.5,-1468.5 -3323.8,-1985.7"
         style="fill:#5cc35a;fill-opacity:1;fill-rule:nonzero;stroke:none"
         transform="matrix(0.13333333,0,0,-0.13333333,0,3038.6667)" />
      <path
         id="path21"
         d="m 14488.6,17867.5 c -385.7,-671.5 -856.1,-1294.8 -1395,-1850.7 -214.4,-221.2 -440.3,-434.2 -676.9,-635 -17.5,-52 -22.5,-105.6 -2,-155.9 38.8,-95.2 157.3,-136.8 258.6,-120.3 101.5,16.4 189.5,76.7 273.9,135.3 -378.1,-334.8 -789.5,-632 -1226.1,-885.9 260.6,-35.7 513.5,98.6 727.7,251.2 214,152.7 418.6,332 670.3,408.3 -225.6,-213.9 -457,-421.7 -694,-623 512.6,317.2 993.4,686.9 1429.6,1101.6 316.4,300.8 610.8,625.1 878.5,970 191.2,246.3 364.3,501.4 530.4,762.6 -96.5,475.2 -226,942.2 -385.7,1399.7 -27.3,-58.3 -55,-116.3 -82.5,-173.9 -94.8,-198.5 -197.2,-393.2 -306.8,-584"
         style="fill:#5cc35a;fill-opacity:1;fill-rule:nonzero;stroke:none"
         transform="matrix(0.13333333,0,0,-0.13333333,0,3038.6667)" />
      <path
         id="path22"
         d="m 5610.67,8135.5 c -419.93,904.3 -663.64,1889.8 -713.9,2885.5 -77.84,432.1 -122.73,870.3 -128.08,1308.7 1.29,3.1 2.55,6.2 3.84,9.3 -7.91,-18.9 -15.73,-37.9 -23.46,-56.9 -3.2,-7.9 -6.45,-15.7 -9.61,-23.5 -10.23,-25.4 -20.27,-50.8 -30.19,-76.3 -3.6,-9.3 -7.13,-18.5 -10.68,-27.8 -7.2,-18.7 -14.32,-37.5 -21.35,-56.3 -3.4,-9.1 -6.83,-18.2 -10.2,-27.3 -9.62,-26.1 -19.1,-52.2 -28.39,-78.3 -2.22,-6.3 -4.37,-12.5 -6.57,-18.8 -7.53,-21.4 -14.94,-42.8 -22.24,-64.2 -3.06,-9 -6.1,-18 -9.12,-27 -7.45,-22.2 -14.78,-44.5 -21.99,-66.7 -1.76,-5.5 -3.57,-10.9 -5.31,-16.3 -8.67,-27 -17.13,-54.1 -25.44,-81.3 -2.43,-7.9 -4.8,-15.8 -7.19,-23.7 -6.42,-21.2 -12.73,-42.5 -18.92,-63.8 -2.21,-7.6 -4.44,-15.2 -6.62,-22.8 -7.92,-27.6 -15.68,-55.2 -23.22,-82.9 -1.29,-4.8 -2.52,-9.5 -3.8,-14.3 -6.41,-23.7 -12.66,-47.5 -18.79,-71.3 -2.02,-7.9 -4.01,-15.7 -6,-23.5 -6.44,-25.5 -12.74,-51 -18.86,-76.5 -0.69,-2.9 -1.42,-5.8 -2.11,-8.7 -6.79,-28.5 -13.33,-57.1 -19.71,-85.7 -1.52,-6.8 -2.99,-13.6 -4.49,-20.4 -5.14,-23.5 -10.15,-47 -15.03,-70.6 -1.27,-6.1 -2.58,-12.3 -3.84,-18.5 -5.9,-29 -11.62,-58 -17.1,-87.1 -0.66,-3.5 -1.29,-7.1 -1.95,-10.6 -4.81,-25.8 -9.42,-51.6 -13.88,-77.4 -1.18,-6.8 -2.35,-13.6 -3.5,-20.4 -4.81,-28.4 -9.47,-56.8 -13.87,-85.3 -0.1,-0.6 -0.2,-1.2 -0.3,-1.9 -4.59,-29.7 -8.89,-59.6 -13.03,-89.4 -0.83,-6 -1.62,-12.1 -2.43,-18.1 -3.42,-25.2 -6.67,-50.5 -9.75,-75.8 -0.62,-5.1 -1.27,-10.1 -1.87,-15.2 -3.58,-30 -6.95,-60.1 -10.06,-90.2 -0.31,-3.1 -0.59,-6.1 -0.9,-9.1 -1.77,-17.5 -3.55,-35 -5.17,-52.5 0.03,-0.4 0.08,-0.8 0.11,-1.3 82.97,-1111.6 488.19,-2198.7 1158.98,-3089.5 38.89,-51.7 81.14,-104.7 140.62,-130.4 59.33,-25.7 140.33,-13.2 171.02,43.8 -294.15,692.1 -588.43,1384.3 -882.56,2076.5 204.38,-441.3 411.74,-887.5 716.91,-1266.2"
         style="fill:#5cc35a;fill-opacity:1;fill-rule:nonzero;stroke:none"
         transform="matrix(0.13333333,0,0,-0.13333333,0,3038.6667)" />
      <path
         id="path23"
         d="m 9282.53,14525.5 c 0.51,-17.3 0.78,-34.6 1.44,-52 4.57,-118.8 15.61,-245.5 88.8,-339.3 33.37,-42.7 81.42,-77.1 135.37,-81 98.1,-7 174.39,83.8 217.99,172.1 62.97,127.7 96.33,270.3 96.47,412.8 11.43,-85 149.23,-119.6 222.2,-61.2 14.1,11.3 26.2,24.3 36.7,38.4 0,2.5 0,4.9 0,7.4 6.2,700.8 105.9,1401.7 293.8,2076.8 145.4,522.4 344,1041.2 605,1521.1 -363,-230.7 -738.4,-440.6 -1111.73,-654.6 -102.71,-302.5 -191.92,-609.6 -270.44,-919.2 -176.56,-696.2 -279.69,-1406.9 -315.6,-2121.3"
         style="fill:#5cc35a;fill-opacity:1;fill-rule:nonzero;stroke:none"
         transform="matrix(0.13333333,0,0,-0.13333333,0,3038.6667)" />
      <path
         id="path24"
         d="m 6098.44,9678.3 c 62.71,-107.6 141.96,-205.6 234.94,-288.6 -57.55,266.5 -115.11,533 -172.66,799.5 -173.44,514.1 -305.81,1042.1 -394.19,1577.7 -75.21,455.9 -119.87,916.8 -131.52,1378.7 -6.17,244.3 -6.91,491.4 6.1,737.4 -7.73,-10.9 -15.45,-21.7 -23.13,-32.6 -8.94,-12.6 -17.87,-25.2 -26.74,-37.9 -8.72,-12.4 -17.37,-24.9 -26.02,-37.4 -13.58,-19.7 -27.08,-39.3 -40.49,-59 -8.25,-12.2 -16.51,-24.3 -24.7,-36.5 -8.51,-12.6 -16.96,-25.3 -25.4,-38 -7.89,-11.9 -15.74,-23.8 -23.58,-35.7 -8.04,-12.2 -16.1,-24.4 -24.07,-36.7 -13.63,-20.9 -27.16,-41.9 -40.59,-63 -7.83,-12.3 -15.57,-24.6 -23.32,-36.9 -7.78,-12.3 -15.53,-24.6 -23.25,-37 -7.72,-12.4 -15.42,-24.8 -23.08,-37.2 -9.26,-15.1 -18.42,-30.1 -27.58,-45.2 -10.54,-17.4 -20.99,-34.8 -31.39,-52.2 -8.32,-13.9 -16.62,-27.8 -24.84,-41.8 -7.19,-12.2 -14.32,-24.4 -21.44,-36.7 -7.89,-13.5 -15.73,-27.1 -23.55,-40.8 -6.56,-11.4 -13.15,-22.8 -19.66,-34.3 -12.62,-22.2 -25.1,-44.5 -37.48,-66.9 -6.42,-11.5 -12.76,-23.1 -19.11,-34.7 -7.7,-14.1 -15.37,-28.2 -22.98,-42.3 -6.31,-11.7 -12.62,-23.4 -18.88,-35.1 -10.2,-19.2 -20.31,-38.3 -30.34,-57.5 -6.99,-13.4 -13.9,-26.8 -20.8,-40.2 -8.29,-16.1 -16.54,-32.2 -24.7,-48.4 -5.76,-11.4 -11.48,-22.7 -17.18,-34.2 -8.03,-16 -15.98,-32.2 -23.89,-48.3 -4.81,-9.8 -9.67,-19.6 -14.43,-29.4 -11.54,-23.8 -22.91,-47.6 -34.18,-71.5 -4.94,-10.5 -9.81,-21 -14.7,-31.5 -7.62,-16.4 -15.18,-32.7 -22.68,-49.1 -4.78,-10.5 -9.56,-20.9 -14.28,-31.4 -11.03,-24.5 -21.96,-49 -32.71,-73.5 10.27,23.5 20.74,46.9 31.28,70.3 14.02,-440 53.34,-880.8 127.31,-1314.7 82.93,-486.5 208.53,-964.1 372,-1428.7 173.72,-381.9 390.75,-739.1 684.67,-1052 46.7,-49.7 102.14,-101 170.22,-103.5 90.15,-3.4 162.41,84.7 174.52,174.1 12.24,89.2 -19.78,178 -51.14,262.5 -76.82,206.7 -153.53,413.5 -230.36,620.2"
         style="fill:#5cc35a;fill-opacity:1;fill-rule:nonzero;stroke:none"
         transform="matrix(0.13333333,0,0,-0.13333333,0,3038.6667)" />
      <path
         id="path25"
         d="m 5641.11,13883 v 0 c 0.25,0.3 0.48,0.6 0.73,1 -0.25,-0.4 -0.48,-0.7 -0.73,-1"
         style="fill:#5cc35a;fill-opacity:1;fill-rule:nonzero;stroke:none"
         transform="matrix(0.13333333,0,0,-0.13333333,0,3038.6667)" />
      <path
         id="path26"
         d="m 9778.87,16407.6 c -29.62,-139.6 -55.4,-280.1 -78.83,-420.8 -23.9,-143.6 -62.58,-299.2 -59.78,-444.9 1.22,-63.9 81.8,-100.5 128.05,-53.1 35.2,36.1 52.19,86.3 41.56,132.3 19.31,106.6 27.18,217.7 44.91,323 24.42,145 52.5,289.3 82.17,433.3 58.46,283.8 125.35,566.4 196.05,847.3 19.7,78.3 -94.2,108.4 -120,33.1 -95.52,-278.9 -172.95,-561.8 -234.13,-850.2"
         style="fill:#83d06d;fill-opacity:1;fill-rule:nonzero;stroke:none"
         transform="matrix(0.13333333,0,0,-0.13333333,0,3038.6667)" />
      <path
         id="path27"
         d="m 10022.1,16670.2 c -37.77,-164.3 -60.96,-332.9 -87.84,-499.5 -26.28,-162.9 -55.11,-326 -64.47,-490.7 -2.86,-50.4 75.39,-60.3 87.56,-11.8 41.15,163.8 62.55,332.6 86.05,500 23,163.1 50.6,326.5 63.3,490.5 3.8,48.5 -73.8,58.6 -84.6,11.5"
         style="fill:#83d06d;fill-opacity:1;fill-rule:nonzero;stroke:none"
         transform="matrix(0.13333333,0,0,-0.13333333,0,3038.6667)" />
      <path
         id="path28"
         d="m 11428.1,17325.7 c 16.4,86 32.9,171.9 49.2,257.9 16,84.3 -98.8,116 -128.2,35.3 -65.1,-178.9 -130.3,-357.8 -195.3,-536.8 8.9,58.6 18.7,117.1 29.5,175.4 43.9,236.5 114.4,465.5 164.3,700.2 12.5,59.1 -77.4,106.7 -104.4,43.9 -97,-225.8 -150.8,-479.1 -195,-720.2 -45.2,-246.1 -74.3,-495 -88,-744.9 -4.5,-81.8 110.2,-87.5 135.2,-18.3 37.9,105 75.6,210.2 113.3,315.2 -0.2,-1.6 -0.4,-3.2 -0.5,-4.9 -3.6,-47.8 47.4,-68.1 84.1,-54 -1.4,-6.6 -2.8,-13.2 -4.3,-19.9 -61.8,-288.8 -111.8,-580.3 -140.3,-874.4 -5.9,-60.9 98.8,-75.9 107.8,-14.6 42.7,291.2 89,581.9 151,869.6 62.2,288.3 146.5,570.4 213.6,857.2 13.9,59.5 -73.3,83.6 -91.4,25.2 -36.8,-92.9 -68.9,-188.2 -97.9,-284.6 -0.9,-2.4 -1.8,-4.9 -2.7,-7.3"
         style="fill:#83d06d;fill-opacity:1;fill-rule:nonzero;stroke:none"
         transform="matrix(0.13333333,0,0,-0.13333333,0,3038.6667)" />
      <path
         id="path29"
         d="m 12411,18622.7 c -3.2,-73.9 -25.1,-148.9 -45,-221.6 6.1,114.4 9.5,229 11,343.8 0.9,71.2 -105.1,69.9 -109.8,0 -13.2,-199 -32.3,-397.7 -53,-596 -20.6,-197.4 -60.6,-394.5 -74.1,-592.4 -5.2,-76.1 103.3,-80.9 124.2,-16.5 0.4,-0.2 0.7,-0.3 1.1,-0.4 24.9,98 40.5,199.8 52.4,302.1 19.4,79.5 41,158.5 59.5,235.9 13.2,55 26.3,109.9 39.5,164.8 -4.3,-87.9 -12.5,-175.8 -26.4,-262.6 -12.1,-75.8 101.8,-110 117.2,-32.3 43.2,217.9 70.6,472.3 7.6,689.3 -16.9,58.3 -101.5,45.4 -104.2,-14.1"
         style="fill:#83d06d;fill-opacity:1;fill-rule:nonzero;stroke:none"
         transform="matrix(0.13333333,0,0,-0.13333333,0,3038.6667)" />
      <path
         id="path30"
         d="m 13313.6,20552.1 c -35.2,-46.7 -47.3,-94.8 -56.2,-151.3 -12.5,-79.3 -42.7,-151.7 -60.6,-229.5 -28.6,-123.9 -53.6,-248.1 -75.8,-373.1 -10,27.8 -62.1,31.1 -67.2,-3.3 -48.1,-322.6 -86.5,-639.8 -52.2,-966 8.3,-79.3 112.5,-77.9 122.4,0 35.9,283 63.9,566.2 109.1,848 21.9,137.3 45.9,274.3 70.2,411.1 11.9,67.1 19.1,134 29.5,201.1 3.1,19.5 6.2,41.1 10.3,63.1 4.3,-13.1 9,-26.3 14.6,-39.4 17.5,-41.3 77.6,-16.7 78.9,21.4 2.5,70.8 -13.5,136.4 -27.8,205.5 -10.1,48.6 -70.8,44.8 -95.2,12.4"
         style="fill:#83d06d;fill-opacity:1;fill-rule:nonzero;stroke:none"
         transform="matrix(0.13333333,0,0,-0.13333333,0,3038.6667)" />
      <path
         id="path31"
         d="m 13751.2,20113.1 c 6.5,94.6 23.2,187.7 31,282 3.1,37.4 -52.7,47.2 -67.6,16.8 -5.2,35.8 -10.5,71.7 -15.7,107.5 -6.3,43 -78.8,33 -76,-10.3 8.4,-132.1 15.2,-264.6 31.8,-396 7.6,-60.6 92.2,-63.5 96.5,0"
         style="fill:#83d06d;fill-opacity:1;fill-rule:nonzero;stroke:none"
         transform="matrix(0.13333333,0,0,-0.13333333,0,3038.6667)" />
      <path
         id="path32"
         d="m 13961.8,19752 c -131,-425.9 -262,-851.8 -378.4,-1281.9 -16.6,-61.4 74.3,-85.4 94.5,-26.1 9.4,27.8 18.6,55.6 27.9,83.4 16,-19.8 49.7,-27.5 68.8,-6.1 56.3,63 88.9,139.2 97.1,223.1 0.3,3.3 0.1,6.3 -0.3,9.1 115.1,316.1 184.8,644.8 209,982.4 5,70 -99.2,79.1 -118.6,16.1"
         style="fill:#83d06d;fill-opacity:1;fill-rule:nonzero;stroke:none"
         transform="matrix(0.13333333,0,0,-0.13333333,0,3038.6667)" />
      <path
         id="path33"
         d="m 8329.63,14497.5 c -1.72,-71.7 117.12,-91.6 128.48,-17.4 3.03,21 5.79,41.9 8.43,62.9 0.23,2 0.5,4.1 0.73,6.1 15.44,124.5 25.31,249.7 43.4,373.9 22.06,151.5 48.92,302.2 80.51,451.9 17.18,81.5 35.85,162.7 55.78,243.6 -19.64,-431.7 -9.55,-864.9 31.96,-1295.1 9.18,-95.1 140.68,-96.1 148.8,0 51.4,609.1 133.56,1214.4 204.92,1821.3 7.11,60.4 -94.22,73.9 -106.34,14.4 -57.54,-282.3 -103.05,-566.9 -140.98,-852.7 1.51,319.9 18.09,639.7 50.39,958.7 8.14,80.5 -111.35,87.8 -134.7,18.3 -97.54,-290.4 -180.66,-584.9 -243.15,-884.9 -60.95,-292.8 -121.06,-601.2 -128.23,-901"
         style="fill:#83d06d;fill-opacity:1;fill-rule:nonzero;stroke:none"
         transform="matrix(0.13333333,0,0,-0.13333333,0,3038.6667)" />
      <path
         id="path34"
         d="m 8385.6,15389.5 c 8.14,62.6 8.36,134.1 20.89,198.9 58.71,10.9 59.31,102.5 1.31,122.6 -112.32,38.9 -116.21,-156.3 -123.85,-215.5 -36.95,-286.4 -66.97,-573.6 -94.91,-861.1 -4.88,-50.3 81.32,-62.6 89,-12 26.11,171.7 52.33,343.2 74.77,515.4 10.92,83.9 21.86,167.8 32.79,251.7"
         style="fill:#83d06d;fill-opacity:1;fill-rule:nonzero;stroke:none"
         transform="matrix(0.13333333,0,0,-0.13333333,0,3038.6667)" />
      <path
         id="path35"
         d="m 7105.18,13687.9 c 0,0 0,-0.1 0,-0.2 h 0.02 c 0.9,-6.4 1.64,-12.8 2.57,-19.2 11.94,-82.4 141.55,-60 142.22,19.2 3.01,360.7 30.5,723.7 85.85,1081.9 26.7,-31.3 86.8,-19.8 100.11,23.4 30.79,99.8 21.35,215.1 25.1,318.6 3.97,109.9 7.95,219.7 11.92,329.6 2.64,72.7 -109.2,87.8 -126.91,17.2 -61.98,-247.4 -113.11,-495.9 -152.23,-746.1 7.32,212 26.68,423.7 59.21,634.2 10.01,64.8 -87.43,94.1 -100.15,27.6 -106.32,-555.2 -126.55,-1125.9 -47.71,-1686.2"
         style="fill:#83d06d;fill-opacity:1;fill-rule:nonzero;stroke:none"
         transform="matrix(0.13333333,0,0,-0.13333333,0,3038.6667)" />
      <path
         id="path36"
         d="m 7640.1,15113.1 c 12.98,54.5 11.98,110.9 25.14,165.7 13.9,58 35.31,112.6 63.14,165.3 36.07,68.3 -67.89,129.1 -103.66,60.6 -58.83,-112.7 -114.71,-263.1 -87.6,-391.6 10.91,-51.7 91.06,-50.1 102.98,0"
         style="fill:#83d06d;fill-opacity:1;fill-rule:nonzero;stroke:none"
         transform="matrix(0.13333333,0,0,-0.13333333,0,3038.6667)" />
      <path
         id="path37"
         d="m 6018.02,12206.2 c 27.02,-179.9 60.6,-359.4 118.28,-532.2 17.48,-52.4 86.9,-33.3 84.95,16.9 26.06,0.4 52.47,18.3 52.14,50 -1.81,173.9 -22.6,347.1 -32.65,520.7 -10.07,174.1 -14.26,348.4 -12.59,522.7 1.47,154.1 9.25,307.3 20.54,460.2 17.62,-151.7 36.98,-303.2 60.74,-454.5 20.83,-132.7 43.07,-265.4 67.13,-397.8 13.38,-225.8 47.39,-449.4 140.36,-654.3 36.56,-80.5 156.15,-21.6 137.72,58.1 -46.16,199.6 -90.69,399.3 -131.5,599.8 -12.43,181.8 -17.6,364.3 -22.38,546.4 -10.76,410.2 -10.79,820.5 2.26,1230.6 2.33,72.8 -108.88,72.1 -112.69,0 -15.07,-286 -24.19,-572.2 -26.56,-858.5 -24.67,170.4 -45.48,341.2 -59,512 -4.94,62.4 -104.77,86.9 -117.5,15.9 -62.42,-347.7 -84.65,-705 -89.02,-1057.9 -0.88,-70.7 -0.52,-141.4 0.54,-212.1 -3.49,-1.2 -6.97,-2.8 -10.39,-5.2 -122.27,-82.9 -89.13,-235.9 -70.38,-360.8"
         style="fill:#83d06d;fill-opacity:1;fill-rule:nonzero;stroke:none"
         transform="matrix(0.13333333,0,0,-0.13333333,0,3038.6667)" />
      <path
         id="path38"
         d="m 5139.5,12076.3 c -3.79,-281.7 26.52,-566.2 66.68,-844.7 10.61,-73.6 22.58,-147 35.68,-220.2 -26.18,-3.5 -49.85,-22.7 -47.64,-53.9 10.66,-150.1 46.01,-301.3 90.87,-444.6 43.38,-138.6 99.24,-294.7 186.78,-411.8 27.99,-37.4 101.62,-17.8 82.81,34.9 -30.41,85.4 -67.59,167.6 -101.91,251.1 23.82,4 45.13,22.6 45,51.5 -0.62,132.9 -51.26,266.7 -79.58,396.1 -29.55,135.1 -54.83,271.1 -75.8,407.8 -15.98,104.1 -28.19,208.3 -38.03,312.6 25.47,-84.3 51,-168.6 77.88,-252.1 80.98,-251.8 159.94,-504.4 244.36,-755 31.03,-92.2 165.11,-55.2 145.43,40.1 -69.56,336.8 -137.8,673.9 -205.29,1011.2 -32.86,164.3 -66.8,328.3 -99.86,492.5 -34.53,171.4 -74.38,343.8 -67.39,519.7 2.63,65.8 -94.86,63.6 -100.92,0 -16.08,-168.9 11.93,-334.1 40.88,-500.1 29.32,-168.1 58.54,-336.3 88.91,-504.2 -57.29,161.2 -114.67,322.6 -162.19,486.2 -20.27,69.8 -125.69,56.3 -126.67,-17.1"
         style="fill:#83d06d;fill-opacity:1;fill-rule:nonzero;stroke:none"
         transform="matrix(0.13333333,0,0,-0.13333333,0,3038.6667)" />
      <path
         id="path39"
         d="m 4744.05,9511.5 c -7.8,30.8 -15.13,61.7 -22.22,92.6 21.65,-68.1 48.8,-134.5 91.3,-189.5 0.33,0.3 0.66,0.5 0.99,0.8 33.95,-30.5 102.09,-15.8 97.71,40.1 -8.69,110.8 -62.16,219.4 -93.09,325.5 -33.69,115.6 -61.39,232.9 -83.06,351.3 -42.99,234.9 -58.77,474.6 -59.45,713.1 -0.22,78.8 -116.81,77.5 -121.52,0 -13.48,-221.4 -0.36,-441.7 32.49,-660.6 -24.35,3.2 -50.22,-11.5 -50.56,-43.5 -1.17,-111.4 20.42,-228 38.83,-337.8 18.03,-107.5 40.72,-214.3 67.12,-320 52.13,-208.8 109.66,-440.7 221.94,-626.5 24.05,-39.8 86.06,-13.7 74.75,31.5 -52.67,210.5 -141.78,411.8 -195.23,623"
         style="fill:#83d06d;fill-opacity:1;fill-rule:nonzero;stroke:none"
         transform="matrix(0.13333333,0,0,-0.13333333,0,3038.6667)" />
      <path
         id="path40"
         d="m 14677.2,17452.8 c -534.9,-581.6 -1101.7,-1124 -1713.5,-1624.4 -50.9,-41.7 17.1,-131.1 70.9,-92 232.3,168.8 458.2,348.4 676.1,537.6 -53.1,-58.8 -106.7,-117.1 -161.2,-174.8 -55.8,-59 26.5,-135.9 87.2,-87.2 352,282.7 709,599 957.5,979.4 27.1,41.5 -32.3,83.3 -66.5,51.4 -104,-97 -202.9,-199 -301.7,-301.2 36.9,42.8 73.9,85.4 111.1,127.9 151.4,157.5 297.2,319.9 436.2,487.3 58.5,64.6 -36.7,160.6 -96.1,96"
         style="fill:#83d06d;fill-opacity:1;fill-rule:nonzero;stroke:none"
         transform="matrix(0.13333333,0,0,-0.13333333,0,3038.6667)" />
      <path
         id="path41"
         d="m 14542.5,16799.8 c -228.6,-253.8 -430.2,-531 -623.9,-812 -28.5,-41.3 37.1,-92.6 70,-54 221.2,259.9 436.8,526.3 622.8,812.9 26.9,41.5 -35.4,90.3 -68.9,53.1"
         style="fill:#83d06d;fill-opacity:1;fill-rule:nonzero;stroke:none"
         transform="matrix(0.13333333,0,0,-0.13333333,0,3038.6667)" />
      <path
         id="path42"
         d="m 14369.8,18685 c -46.9,-75.1 -78.7,-164.5 -116.8,-244.8 -40.7,-85.8 -80.7,-171.8 -124.2,-256.3 -85.2,-165.4 -169.1,-331.5 -259.3,-494.2 -27.8,-50.3 43.2,-89.2 75.7,-44.3 111.7,154.5 214.5,314.1 300,484.7 40.7,81.2 80.6,163.2 116.2,246.8 36.4,85.4 81.4,178.6 99.3,269.8 10.7,54.3 -59.9,87.8 -90.9,38.3"
         style="fill:#83d06d;fill-opacity:1;fill-rule:nonzero;stroke:none"
         transform="matrix(0.13333333,0,0,-0.13333333,0,3038.6667)" />
      <path
         id="path43"
         d="m 14895.4,16143 c -329.1,-329.3 -671,-644.7 -1025.7,-946.3 -353.8,-300.9 -724.9,-580.1 -1089.6,-867.4 -39.3,-31 11.4,-94.6 53.2,-68.9 287.9,177.5 560.3,377.4 824.8,587.6 11.3,-34.1 47.5,-58.3 88.3,-33.4 114.7,70.1 230.8,138.5 344.3,210.6 71.6,45.5 147.3,89.4 217.8,138.9 13.6,-17.9 43.9,-22.2 58.3,2.1 17.8,30.1 35.6,60.2 53.4,90.3 20.6,34.9 -14.4,90.1 -56.6,73.6 -6.8,-2.6 -13.5,-5.7 -20.2,-8.5 238.3,228 458.7,474.2 658.4,739.4 47.1,62.4 -53.4,135.1 -106.4,82"
         style="fill:#83d06d;fill-opacity:1;fill-rule:nonzero;stroke:none"
         transform="matrix(0.13333333,0,0,-0.13333333,0,3038.6667)" />
      <path
         id="path44"
         d="m 14192.2,15022.9 c -102.3,-77.1 -201.2,-155.8 -296.1,-242.3 -49.2,-44.8 21.6,-110.1 71.4,-71.3 97.8,76.4 189.4,157.5 279.6,242.4 36.5,34.4 -13.2,102.6 -54.9,71.2"
         style="fill:#83d06d;fill-opacity:1;fill-rule:nonzero;stroke:none"
         transform="matrix(0.13333333,0,0,-0.13333333,0,3038.6667)" />
      <path
         id="path45"
         d="m 14186.6,14019.4 c -87.5,-60.3 -176.3,-118.9 -265.7,-176.9 88.9,58.5 177.4,117.5 265.7,176.9 z m 833.6,738.5 c -897.7,-613.9 -1810.4,-1203.4 -2723.3,-1794.2 -52.7,-34.1 -5.9,-115.8 49.4,-84.6 398.1,224.4 790.2,460.7 1176.6,706.1 -99.2,-65.2 -197.4,-131.6 -293.4,-200.6 -170.9,-123 -335.4,-254.7 -486.7,-401.2 -50.7,-49 14.3,-133.3 75.1,-97.4 364.2,214.6 729.2,427.8 1092.2,644.4 -64.2,-54 -130.5,-105.5 -194.2,-157.2 -201.1,-163 -406.6,-322.9 -624.1,-463.2 -50.9,-32.8 -6.9,-102.8 46.4,-79.4 168.6,74 327.9,173.7 478,279.9 147.9,104.7 292.2,216.9 419.8,345.7 15.8,15.8 18.1,33.7 12.8,48.9 99.5,79 190.5,167.2 261.1,274.8 35.6,54.1 -33.7,117.1 -86.5,86.5 -193,-112.1 -385.1,-225.6 -576.9,-339.7 338.2,223.1 686,433.9 1000.1,689.7 163.6,133.2 317.4,276.6 452.8,438.9 44,52.7 -13.4,147.6 -79.2,102.6"
         style="fill:#83d06d;fill-opacity:1;fill-rule:nonzero;stroke:none"
         transform="matrix(0.13333333,0,0,-0.13333333,0,3038.6667)" />
      <path
         id="path46"
         d="m 12590.1,12668.5 c -142.1,-53.5 -270.8,-132.7 -400.5,-210.2 -60,-35.9 -6.8,-126.4 54.6,-93.5 133.2,71.4 266.7,141.1 385.7,235.3 31.7,25.1 -2.6,82.4 -39.8,68.4"
         style="fill:#83d06d;fill-opacity:1;fill-rule:nonzero;stroke:none"
         transform="matrix(0.13333333,0,0,-0.13333333,0,3038.6667)" />
      <path
         id="path47"
         d="m 14657.2,13455.8 c -702.3,-559.5 -1424.8,-1095.1 -2163.6,-1605.5 -208.4,-144 -413.4,-292.8 -619.2,-440.4 -45,-32.2 -5.2,-105.2 44.2,-75.7 778.6,465.4 1515.4,1002.6 2234,1555.2 26.7,20.6 53.2,41.5 79.9,62.2 -152,-150.9 -316.7,-289.1 -492.7,-418.5 -367.2,-269.8 -743.4,-527.4 -1113.2,-793.7 -71,-51 -7.8,-166.8 69.9,-119.6 508.7,309.7 1001.9,642.8 1471.7,1008.9 29.3,22.9 19.5,61.8 -4.1,83.8 222.7,197.9 425.7,416 599,661.6 47.8,67.7 -51,125.3 -105.9,81.7"
         style="fill:#83d06d;fill-opacity:1;fill-rule:nonzero;stroke:none"
         transform="matrix(0.13333333,0,0,-0.13333333,0,3038.6667)" />
      <path
         id="path48"
         d="m 13874,12302.1 c -220.2,-146.4 -421.6,-320.4 -623.9,-490.3 -42,-35.3 14.9,-110.7 59.4,-77 210.5,159.7 425.1,317.3 616.8,499.6 34.8,33.2 -11,95.2 -52.3,67.7"
         style="fill:#83d06d;fill-opacity:1;fill-rule:nonzero;stroke:none"
         transform="matrix(0.13333333,0,0,-0.13333333,0,3038.6667)" />
      <path
         id="path49"
         d="m 13996.7,11543.8 c -196.7,-151.1 -396.9,-296.8 -599.9,-438.4 -45.6,-23.5 -91.2,-46.7 -136.4,-70.2 -225.4,-117.4 -433.4,-258 -616.9,-430.4 -176.3,-112.1 -354,-222.2 -532.9,-330.8 -59.1,-35.9 -7.1,-123.4 53.9,-92.3 109.3,55.7 217.4,113.7 324.5,173.3 15.2,-26.2 43.4,-42.3 79.1,-28 80.9,32.6 161.1,66.6 240.7,102.1 -23.2,-17.2 -46.3,-34.4 -69.5,-51.6 -58.6,-43.6 -26.6,-128 32.5,-129.4 -0.9,-0.8 -1.8,-1.6 -2.8,-2.3 -56.6,-47.6 4.1,-142.4 70.9,-121.8 174,53.4 338.1,140 468.2,268.5 37.4,36.9 20.1,81.4 -13.8,100.6 81.2,67.7 162.3,135.4 243,203.7 31.3,26.5 26.6,66.8 5.7,95.1 81.9,60 164,119.8 245.7,180.1 76.8,56.6 6,185.8 -76.4,130.7 -150.6,-100.5 -304.9,-195.2 -462.6,-283.5 82.5,54.7 164.4,110.4 245.6,167 220.6,114.1 438.8,238.8 594.3,437.2 48,61.1 -17.1,178.6 -92.9,120.4"
         style="fill:#83d06d;fill-opacity:1;fill-rule:nonzero;stroke:none"
         transform="matrix(0.13333333,0,0,-0.13333333,0,3038.6667)" />
      <path
         id="path50"
         d="m 12373.7,9922.8 c -116.4,-50.9 -220.4,-119.4 -326.7,-188.5 -57.2,-37.3 -6,-127 54,-92.3 113,65.5 224,129.8 324.9,213.1 41,33.8 -11.3,85.6 -52.2,67.7"
         style="fill:#83d06d;fill-opacity:1;fill-rule:nonzero;stroke:none"
         transform="matrix(0.13333333,0,0,-0.13333333,0,3038.6667)" />
      <path
         id="path51"
         d="m 11714.1,8663.5 c -357.5,-117.9 -705.6,-265.4 -1049.3,-418.7 -48.1,-21.4 -13.9,-103.2 36,-85.5 354.7,125.8 708.4,259.3 1048.8,420.1 47,22.2 13.9,100.4 -35.5,84.1"
         style="fill:#83d06d;fill-opacity:1;fill-rule:nonzero;stroke:none"
         transform="matrix(0.13333333,0,0,-0.13333333,0,3038.6667)" />
      <path
         id="path52"
         d="m 13467,9731.2 c -428.5,-197.7 -825.2,-470.9 -1191.2,-767.1 -41,-33.1 13.1,-103.6 56.7,-73.4 385.7,266.7 785.7,509.9 1178,766.1 47.1,30.7 6.4,97.5 -43.5,74.4"
         style="fill:#83d06d;fill-opacity:1;fill-rule:nonzero;stroke:none"
         transform="matrix(0.13333333,0,0,-0.13333333,0,3038.6667)" />
      <path
         id="path53"
         d="m 11707.8,7936.7 c -222.5,-73.1 -428.1,-183.4 -631.7,-297.8 -89.6,-47.7 -178.1,-97.3 -265.7,-148.5 -193.2,-105.2 -390.4,-201.1 -604.3,-259.7 -69.4,-19 -40.1,-122.3 29.6,-107.2 2.9,0.6 5.7,1.3 8.6,2 -29.9,-40.9 5.4,-102.9 55.1,-93.5 -16.3,-16.3 -32.3,-33 -47.7,-50.6 -27.2,-31 -14.7,-75.9 16.8,-90.8 -40.5,-37.7 -5.9,-107.2 48.4,-112.3 129.9,-12.2 250.7,35.8 338.6,132.1 11,12.1 13.5,27.4 10.4,41.5 35.2,18.3 70.4,36.7 105.6,55 67.6,35.3 20.7,141.4 -51.3,121.7 -70.7,-19.3 -141,-40.2 -211.1,-61.5 117.9,83.5 253.2,144.2 384.3,204.2 204.8,93.5 410.3,192.8 566.2,359.8 20,21.4 23.1,45.6 15.6,65.8 59.6,30.2 119.9,59.1 181,85.9 28.1,11.9 56.2,23.7 84.3,35.3 71,29.3 44.5,144 -32.7,118.6"
         style="fill:#83d06d;fill-opacity:1;fill-rule:nonzero;stroke:none"
         transform="matrix(0.13333333,0,0,-0.13333333,0,3038.6667)" />
      <path
         id="path54"
         d="m 10296.2,6667.8 c -108.9,-17.7 -212.6,-56.1 -317.51,-89.5 -58.91,-18.7 -34.75,-109.1 25.71,-93.1 110.5,29.4 221.4,54.5 326.7,99.8 50.8,21.8 11.4,90.3 -34.9,82.8"
         style="fill:#83d06d;fill-opacity:1;fill-rule:nonzero;stroke:none"
         transform="matrix(0.13333333,0,0,-0.13333333,0,3038.6667)" />
    </g>
  </g>
</svg>
